<svg width="49" height="40" viewBox="0 0 49 40" fill="none" xmlns="http://www.w3.org/2000/svg">
<path d="M5.3654 21.1572H43.6852C44.4888 21.1572 45.142 21.8428 45.072 22.6482C44.2321 32.2378 35.354 39.7839 24.5266 39.7839C13.6992 39.7839 4.82105 32.2378 3.98119 22.6482C3.90861 21.8428 4.56183 21.1572 5.3654 21.1572Z" fill="#FF6633"/>
<path d="M31.4435 6.8082C31.8712 6.8082 32.2963 6.61531 32.5737 6.24518C33.9734 4.3945 36.633 3.24239 39.5128 3.24239C42.3927 3.24239 45.0523 4.3919 46.452 6.24518C46.9264 6.87337 47.8181 6.99327 48.4402 6.51626C49.0649 6.03926 49.1842 5.14259 48.7098 4.51701C46.7553 1.93128 43.3181 0.388184 39.5128 0.388184C35.7076 0.388184 32.2704 1.93128 30.3133 4.51701C29.8389 5.1452 29.9608 6.03926 30.5829 6.51626C30.8421 6.71437 31.1428 6.8082 31.4435 6.8082Z" fill="#414141"/>
<path d="M1.47374 6.8082C1.90145 6.8082 2.32656 6.61531 2.60392 6.24518C4.00369 4.3945 6.66323 3.24239 9.54312 3.24239C12.423 3.24239 15.0825 4.3919 16.4823 6.24518C16.9567 6.87337 17.8484 6.99327 18.4705 6.51626C19.0952 6.03926 19.2144 5.14259 18.7401 4.51701C16.7856 1.93128 13.3484 0.388184 9.54312 0.388184C5.73783 0.388184 2.30064 1.93128 0.343567 4.51701C-0.130798 5.1452 -0.00896454 6.03926 0.613152 6.51626C0.872368 6.71437 1.17305 6.8082 1.47374 6.8082Z" fill="#414141"/>
</svg>
